<svg xmlns="http://www.w3.org/2000/svg" viewBox="0 0 800 520" role="img" aria-label="Rosendal corner sofa, drawn from its box model">
<defs><filter id="fp-shadow" x="-20%" y="-40%" width="140%" height="180%"><feGaussianBlur stdDeviation="9"/></filter></defs>
<polygon points="52,275.85 498.97,428.97 748,288.75 301.03,135.63" fill="#000" opacity="0.13" filter="url(#fp-shadow)"/>
<polygon points="176.67,93.21 58.39,159.82 58.39,278.04 176.67,211.44" fill="#676159" stroke="#4a4640" stroke-width="0.8" stroke-linejoin="round"/>
<polygon points="176.67,93.21 170.29,91.03 52,157.63 58.39,159.82" fill="#b4aa9b" stroke="#827a70" stroke-width="0.8" stroke-linejoin="round"/>
<polygon points="58.39,159.82 58.39,278.04 52,275.85 52,157.63" fill="#898176" stroke="#625d55" stroke-width="0.8" stroke-linejoin="round"/>
<polygon points="736.63,263.91 591.37,214.14 465.61,284.95 610.88,334.72" fill="#b4aa9b" stroke="#827a70" stroke-width="0.8" stroke-linejoin="round"/>
<polygon points="741.61,202.9 596.35,153.14 465.61,226.75 610.88,276.52" fill="#b4aa9b" stroke="#827a70" stroke-width="0.8" stroke-linejoin="round"/>
<polygon points="604.65,338.22 170.45,189.48 58.39,252.58 492.59,401.32" fill="#b4aa9b" stroke="#827a70" stroke-width="0.8" stroke-linejoin="round"/>
<polygon points="736.63,263.91 610.88,334.72 610.88,360.18 736.63,289.37" fill="#676159" stroke="#4a4640" stroke-width="0.8" stroke-linejoin="round"/>
<polygon points="610.88,276.52 176.67,127.77 83.29,180.35 517.49,329.1" fill="#b4aa9b" stroke="#827a70" stroke-width="0.8" stroke-linejoin="round"/>
<polygon points="741.61,202.9 610.88,276.52 610.88,334.72 741.61,261.1" fill="#676159" stroke="#4a4640" stroke-width="0.8" stroke-linejoin="round"/>
<polygon points="610.88,334.72 610.88,360.18 465.61,310.42 465.61,284.95" fill="#898176" stroke="#625d55" stroke-width="0.8" stroke-linejoin="round"/>
<polygon points="748,170.53 617.26,244.15 617.26,362.37 748,288.75" fill="#676159" stroke="#4a4640" stroke-width="0.8" stroke-linejoin="round"/>
<polygon points="610.88,276.52 610.88,334.72 465.61,284.95 465.61,226.75" fill="#898176" stroke="#625d55" stroke-width="0.8" stroke-linejoin="round"/>
<polygon points="517.49,329.1 517.49,387.3 83.29,238.56 83.29,180.35" fill="#898176" stroke="#625d55" stroke-width="0.8" stroke-linejoin="round"/>
<polygon points="748,170.53 741.61,168.34 610.88,241.96 617.26,244.15" fill="#b4aa9b" stroke="#827a70" stroke-width="0.8" stroke-linejoin="round"/>
<polygon points="492.59,401.32 492.59,426.79 58.39,278.04 58.39,252.58" fill="#898176" stroke="#625d55" stroke-width="0.8" stroke-linejoin="round"/>
<polygon points="492.59,272.19 492.59,401.32 58.39,252.58 58.39,123.44" fill="#928c82" stroke="#69645e" stroke-width="0.8" stroke-linejoin="round"/>
<polygon points="617.26,244.15 617.26,362.37 610.88,360.18 610.88,241.96" fill="#898176" stroke="#625d55" stroke-width="0.8" stroke-linejoin="round"/>
<polygon points="517.49,258.17 83.29,109.42 58.39,123.44 492.59,272.19" fill="#c0b8ac" stroke="#8b847c" stroke-width="0.8" stroke-linejoin="round"/>
<polygon points="604.65,338.22 492.59,401.32 492.59,426.79 604.65,363.69" fill="#676159" stroke="#4a4640" stroke-width="0.8" stroke-linejoin="round"/>
<polygon points="610.88,276.52 517.49,329.1 517.49,387.3 610.88,334.72" fill="#676159" stroke="#4a4640" stroke-width="0.8" stroke-linejoin="round"/>
<polygon points="517.49,258.17 492.59,272.19 492.59,401.32 517.49,387.3" fill="#6e6962" stroke="#4f4b46" stroke-width="0.8" stroke-linejoin="round"/>
</svg>
